<svg width="63" height="63" viewBox="0 0 63 63" fill="none" xmlns="http://www.w3.org/2000/svg">
<circle cx="31.5" cy="31.5" r="31.5" fill="#F8F8F8"/>
<path d="M31.5 18.9C33.1709 18.9 34.7733 19.5638 35.9548 20.7452C37.1363 21.9267 37.8 23.5291 37.8 25.2C37.8 26.8709 37.1363 28.4733 35.9548 29.6548C34.7733 30.8363 33.1709 31.5 31.5 31.5C29.8291 31.5 28.2267 30.8363 27.0452 29.6548C25.8638 28.4733 25.2 26.8709 25.2 25.2C25.2 23.5291 25.8638 21.9267 27.0452 20.7452C28.2267 19.5638 29.8291 18.9 31.5 18.9V18.9ZM31.5 34.65C38.4615 34.65 44.1 37.4693 44.1 40.95V44.1H18.9V40.95C18.9 37.4693 24.5385 34.65 31.5 34.65Z" fill="#B4B4B4"/>
</svg>
